<?xml version="1.0" standalone="no"?>
<!DOCTYPE svg PUBLIC "-//W3C//DTD SVG 20010904//EN"
 "http://www.w3.org/TR/2001/REC-SVG-20010904/DTD/svg10.dtd">
<svg version="1.0" xmlns="http://www.w3.org/2000/svg"
 width="1449.000000pt" height="532.000000pt" viewBox="0 0 1449.000000 532.000000"
 preserveAspectRatio="xMidYMid meet">

<g transform="translate(0.000000,532.000000) scale(0.100000,-0.100000)"
fill="#000000" stroke="none">
<path d="M2029 5053 c-345 -352 -624 -692 -965 -1173 -645 -913 -984 -1754
-950 -2359 23 -417 157 -742 411 -997 229 -229 543 -378 930 -440 136 -21 529
-30 693 -15 651 60 1372 275 2202 656 63 29 189 86 280 125 91 40 190 84 220
97 30 14 192 86 360 160 168 74 343 152 390 173 47 21 184 82 305 135 238 105
246 108 350 155 39 18 99 45 135 60 96 41 218 95 470 208 314 139 1671 741
2070 917 171 76 691 306 1580 700 245 109 499 221 565 250 66 29 224 99 350
155 127 56 347 154 490 217 143 63 278 123 300 133 22 10 175 77 340 150 165
73 507 225 760 337 253 112 584 259 735 325 303 134 286 126 278 134 -5 5
-187 -43 -663 -176 -166 -46 -289 -79 -330 -90 -16 -4 -345 -94 -730 -199
-385 -106 -1028 -282 -1430 -391 -401 -109 -912 -249 -1135 -310 -223 -61
-551 -151 -730 -200 -312 -85 -507 -139 -1260 -346 -350 -97 -1074 -295 -1165
-319 -27 -8 -324 -89 -660 -181 -335 -91 -698 -190 -805 -219 -107 -29 -330
-90 -495 -135 -866 -235 -990 -266 -1225 -305 -228 -38 -313 -46 -490 -47
-541 -2 -981 164 -1241 467 -121 140 -213 324 -249 498 -99 474 21 1036 385
1810 51 108 90 197 86 197 -4 0 -77 -71 -162 -157z"/>
</g>
</svg>
